<svg width="114" height="26" viewBox="0 0 114 26" fill="none" xmlns="http://www.w3.org/2000/svg">
<rect y="10" width="2" height="6" rx="1" fill="#201830"/>
<rect x="32" y="10" width="2" height="6" rx="1" fill="#201830"/>
<rect x="72" y="10" width="2" height="6" rx="1" fill="#A4A0AB"/>
<rect x="40" y="10" width="2" height="6" rx="1" fill="#201830"/>
<rect x="80" y="10" width="2" height="6" rx="1" fill="#A4A0AB"/>
<rect x="112" y="10" width="2" height="6" rx="1" fill="#A4A0AB"/>
<rect x="8" y="5" width="2" height="16" rx="1" fill="#201830"/>
<rect x="24" y="5" width="2" height="16" rx="1" fill="#201830"/>
<rect x="64" y="5" width="2" height="16" rx="1" fill="#A4A0AB"/>
<rect x="104" y="5" width="2" height="16" rx="1" fill="#A4A0AB"/>
<rect x="48" y="5" width="2" height="16" rx="1" fill="#201830"/>
<rect x="88" y="5" width="2" height="16" rx="1" fill="#A4A0AB"/>
<rect x="16" width="2" height="26" rx="1" fill="#201830"/>
<rect x="56" width="2" height="26" rx="1" fill="#A4A0AB"/>
<rect x="96" width="2" height="26" rx="1" fill="#A4A0AB"/>
</svg>
