<svg width="69" height="16" viewBox="0 0 69 16" fill="none" xmlns="http://www.w3.org/2000/svg">
<rect x="0.549011" y="6.39307" width="1.18658" height="3.55973" rx="0.593288" fill="#201830"/>
<rect x="19.5338" y="6.39307" width="1.18658" height="3.55973" rx="0.593288" fill="#201830"/>
<rect x="43.2656" y="6.39307" width="1.18658" height="3.55973" rx="0.593288" fill="#A4A0AB"/>
<rect x="24.2803" y="6.39307" width="1.18658" height="3.55973" rx="0.593288" fill="#201830"/>
<rect x="48.0118" y="6.39307" width="1.18658" height="3.55973" rx="0.593288" fill="#A4A0AB"/>
<rect x="66.9971" y="6.39307" width="1.18658" height="3.55973" rx="0.593288" fill="#A4A0AB"/>
<rect x="5.29498" y="3.42627" width="1.18658" height="9.4926" rx="0.593288" fill="#201830"/>
<rect x="14.7877" y="3.42627" width="1.18658" height="9.4926" rx="0.593288" fill="#201830"/>
<rect x="38.5191" y="3.42627" width="1.18658" height="9.4926" rx="0.593288" fill="#A4A0AB"/>
<rect x="62.251" y="3.42627" width="1.18658" height="9.4926" rx="0.593288" fill="#A4A0AB"/>
<rect x="29.0264" y="3.42627" width="1.18658" height="9.4926" rx="0.593288" fill="#201830"/>
<rect x="52.7584" y="3.42627" width="1.18658" height="9.4926" rx="0.593288" fill="#A4A0AB"/>
<rect x="10.0414" y="0.460205" width="1.18658" height="15.4255" rx="0.593288" fill="#201830"/>
<rect x="33.7729" y="0.460205" width="1.18658" height="15.4255" rx="0.593288" fill="#A4A0AB"/>
<rect x="57.5045" y="0.460205" width="1.18658" height="15.4255" rx="0.593288" fill="#A4A0AB"/>
</svg>
