<svg width="117" height="26" viewBox="0 0 117 26" fill="none" xmlns="http://www.w3.org/2000/svg">
<path d="M42.592 23.288C41.648 23.288 40.776 23.104 39.976 22.736C39.192 22.352 38.568 21.808 38.104 21.104L38.416 20.48V23H35.464V4.83203H38.608V12.536L38.128 11.888C38.576 11.184 39.184 10.64 39.952 10.256C40.72 9.85603 41.608 9.65603 42.616 9.65603C43.848 9.65603 44.96 9.96003 45.952 10.568C46.944 11.176 47.728 11.992 48.304 13.016C48.896 14.04 49.192 15.192 49.192 16.472C49.192 17.736 48.904 18.888 48.328 19.928C47.752 20.968 46.968 21.792 45.976 22.4C44.984 22.992 43.856 23.288 42.592 23.288ZM42.232 20.408C42.952 20.408 43.592 20.24 44.152 19.904C44.712 19.568 45.144 19.104 45.448 18.512C45.768 17.92 45.928 17.24 45.928 16.472C45.928 15.704 45.768 15.032 45.448 14.456C45.144 13.864 44.712 13.4 44.152 13.064C43.592 12.712 42.952 12.536 42.232 12.536C41.544 12.536 40.92 12.704 40.36 13.04C39.816 13.376 39.384 13.848 39.064 14.456C38.76 15.048 38.608 15.72 38.608 16.472C38.608 17.24 38.76 17.92 39.064 18.512C39.384 19.104 39.816 19.568 40.36 19.904C40.92 20.24 41.544 20.408 42.232 20.408Z" fill="#201830"/>
<path d="M55.549 23.288C54.637 23.288 53.845 23.136 53.173 22.832C52.501 22.528 51.981 22.096 51.613 21.536C51.245 20.96 51.061 20.296 51.061 19.544C51.061 18.824 51.221 18.184 51.541 17.624C51.861 17.048 52.357 16.568 53.029 16.184C53.701 15.8 54.549 15.528 55.573 15.368L59.845 14.672V17.072L56.173 17.696C55.549 17.808 55.085 18.008 54.781 18.296C54.477 18.584 54.325 18.96 54.325 19.424C54.325 19.872 54.493 20.232 54.829 20.504C55.181 20.76 55.613 20.888 56.125 20.888C56.781 20.888 57.357 20.752 57.853 20.48C58.365 20.192 58.757 19.8 59.029 19.304C59.317 18.808 59.461 18.264 59.461 17.672V14.312C59.461 13.752 59.237 13.288 58.789 12.92C58.357 12.536 57.781 12.344 57.061 12.344C56.389 12.344 55.789 12.528 55.261 12.896C54.749 13.248 54.373 13.72 54.133 14.312L51.565 13.064C51.821 12.376 52.221 11.784 52.765 11.288C53.325 10.776 53.981 10.376 54.733 10.088C55.485 9.80003 56.301 9.65603 57.181 9.65603C58.253 9.65603 59.197 9.85603 60.013 10.256C60.829 10.64 61.461 11.184 61.909 11.888C62.373 12.576 62.605 13.384 62.605 14.312V23H59.629V20.768L60.301 20.72C59.965 21.28 59.565 21.752 59.101 22.136C58.637 22.504 58.109 22.792 57.517 23C56.925 23.192 56.269 23.288 55.549 23.288Z" fill="#201830"/>
<path d="M72.6389 23.288C71.6949 23.288 70.8229 23.104 70.0229 22.736C69.2389 22.352 68.6149 21.808 68.1509 21.104L68.4629 20.48V23H65.5109V4.83203H68.6549V12.536L68.1749 11.888C68.6229 11.184 69.2309 10.64 69.9989 10.256C70.7669 9.85603 71.6549 9.65603 72.6629 9.65603C73.8949 9.65603 75.0069 9.96003 75.9989 10.568C76.9909 11.176 77.7749 11.992 78.3509 13.016C78.9429 14.04 79.2389 15.192 79.2389 16.472C79.2389 17.736 78.9509 18.888 78.3749 19.928C77.7989 20.968 77.0149 21.792 76.0229 22.4C75.0309 22.992 73.9029 23.288 72.6389 23.288ZM72.2789 20.408C72.9989 20.408 73.6389 20.24 74.1989 19.904C74.7589 19.568 75.1909 19.104 75.4949 18.512C75.8149 17.92 75.9749 17.24 75.9749 16.472C75.9749 15.704 75.8149 15.032 75.4949 14.456C75.1909 13.864 74.7589 13.4 74.1989 13.064C73.6389 12.712 72.9989 12.536 72.2789 12.536C71.5909 12.536 70.9669 12.704 70.4069 13.04C69.8629 13.376 69.4309 13.848 69.1109 14.456C68.8069 15.048 68.6549 15.72 68.6549 16.472C68.6549 17.24 68.8069 17.92 69.1109 18.512C69.4309 19.104 69.8629 19.568 70.4069 19.904C70.9669 20.24 71.5909 20.408 72.2789 20.408Z" fill="#201830"/>
<path d="M88.7639 23.288C87.8199 23.288 86.9479 23.104 86.1479 22.736C85.3639 22.352 84.7399 21.808 84.2759 21.104L84.5879 20.48V23H81.6359V4.83203H84.7799V12.536L84.2999 11.888C84.7479 11.184 85.3559 10.64 86.1239 10.256C86.8919 9.85603 87.7799 9.65603 88.7879 9.65603C90.0199 9.65603 91.1319 9.96003 92.1239 10.568C93.1159 11.176 93.8999 11.992 94.4759 13.016C95.0679 14.04 95.3639 15.192 95.3639 16.472C95.3639 17.736 95.0759 18.888 94.4999 19.928C93.9239 20.968 93.1399 21.792 92.1479 22.4C91.1559 22.992 90.0279 23.288 88.7639 23.288ZM88.4039 20.408C89.1239 20.408 89.7639 20.24 90.3239 19.904C90.8839 19.568 91.3159 19.104 91.6199 18.512C91.9399 17.92 92.0999 17.24 92.0999 16.472C92.0999 15.704 91.9399 15.032 91.6199 14.456C91.3159 13.864 90.8839 13.4 90.3239 13.064C89.7639 12.712 89.1239 12.536 88.4039 12.536C87.7159 12.536 87.0919 12.704 86.5319 13.04C85.9879 13.376 85.5559 13.848 85.2359 14.456C84.9319 15.048 84.7799 15.72 84.7799 16.472C84.7799 17.24 84.9319 17.92 85.2359 18.512C85.5559 19.104 85.9879 19.568 86.5319 19.904C87.0919 20.24 87.7159 20.408 88.4039 20.408Z" fill="#201830"/>
<path d="M97.7609 23V4.83203H100.905V23H97.7609Z" fill="#201830"/>
<path d="M110 23.288C108.656 23.288 107.48 22.984 106.472 22.376C105.464 21.768 104.68 20.944 104.12 19.904C103.56 18.864 103.28 17.712 103.28 16.448C103.28 15.136 103.56 13.976 104.12 12.968C104.696 11.944 105.472 11.136 106.448 10.544C107.44 9.95203 108.544 9.65603 109.76 9.65603C110.784 9.65603 111.68 9.82403 112.448 10.16C113.232 10.496 113.896 10.96 114.44 11.552C114.984 12.144 115.4 12.824 115.688 13.592C115.976 14.344 116.12 15.16 116.12 16.04C116.12 16.264 116.104 16.496 116.072 16.736C116.056 16.976 116.016 17.184 115.952 17.36H105.872V14.96H114.176L112.688 16.088C112.832 15.352 112.792 14.696 112.568 14.12C112.36 13.544 112.008 13.088 111.512 12.752C111.032 12.416 110.448 12.248 109.76 12.248C109.104 12.248 108.52 12.416 108.008 12.752C107.496 13.072 107.104 13.552 106.832 14.192C106.576 14.816 106.48 15.576 106.544 16.472C106.48 17.272 106.584 17.984 106.856 18.608C107.144 19.216 107.56 19.688 108.104 20.024C108.664 20.36 109.304 20.528 110.024 20.528C110.744 20.528 111.352 20.376 111.848 20.072C112.36 19.768 112.76 19.36 113.048 18.848L115.592 20.096C115.336 20.72 114.936 21.272 114.392 21.752C113.848 22.232 113.2 22.608 112.448 22.88C111.712 23.152 110.896 23.288 110 23.288Z" fill="#201830"/>
<rect width="26" height="26" rx="4" fill="#936CDD"/>
<path fill-rule="evenodd" clip-rule="evenodd" d="M13.8182 0.8125V3.69688C16.0536 3.89952 18.132 4.92438 19.6457 6.57037C21.1594 8.21636 21.9991 10.3647 22 12.5938V15.3156C22 15.5311 21.9138 15.7378 21.7604 15.8901C21.6069 16.0425 21.3988 16.1281 21.1818 16.1281C20.9648 16.1281 20.7567 16.0425 20.6033 15.8901C20.4498 15.7378 20.3636 15.5311 20.3636 15.3156V15.0312H5.63636V15.3156C5.63636 15.5311 5.55016 15.7378 5.39672 15.8901C5.24328 16.0425 5.03518 16.1281 4.81818 16.1281C4.60119 16.1281 4.39308 16.0425 4.23964 15.8901C4.0862 15.7378 4 15.5311 4 15.3156V12.5938C4.00091 10.3647 4.84059 8.21636 6.35429 6.57037C7.86799 4.92438 9.94643 3.89952 12.1818 3.69688V0.8125C12.1818 0.597012 12.268 0.390349 12.4215 0.237976C12.5749 0.0856024 12.783 0 13 0C13.217 0 13.4251 0.0856024 13.5785 0.237976C13.732 0.390349 13.8182 0.597012 13.8182 0.8125ZM18.7273 13.4062H20.3636V12.5938C20.3636 10.6544 19.5878 8.79439 18.2069 7.42303C16.8259 6.05167 14.953 5.28125 13 5.28125C11.047 5.28125 9.17407 6.05167 7.79312 7.42303C6.41217 8.79439 5.63636 10.6544 5.63636 12.5938V13.4062H7.27273V12.5938C7.27273 11.0853 7.87613 9.63869 8.95021 8.57208C10.0243 7.50547 11.481 6.90625 13 6.90625C14.519 6.90625 15.9757 7.50547 17.0498 8.57208C18.1239 9.63869 18.7273 11.0853 18.7273 12.5938V13.4062Z" fill="white"/>
<path d="M7.27273 20.3339V16.6562H18.7273V20.3339C18.7103 20.6363 18.6692 20.937 18.6045 21.2329V21.3555C18.3539 22.6622 17.6552 23.8409 16.6285 24.6886C15.6019 25.5363 14.3115 26 12.9795 26C11.6475 26 10.3572 25.5363 9.33054 24.6886C8.30389 23.8409 7.60514 22.6622 7.35455 21.3555V21.192C7.30586 20.9084 7.27851 20.6216 7.27273 20.3339Z" fill="white"/>
</svg>
