<svg width="43" height="35" viewBox="0 0 43 35" fill="none" xmlns="http://www.w3.org/2000/svg">
<path d="M16.4348 3.94266C14.4769 6.25668 11.3361 9.96879 10.6499 14.4356C10.3829 16.174 10.1158 19.2453 13.9141 19.9407C17.3878 20.5767 21.3327 26.315 16.5848 32.3997C14.2437 35.3999 5.19865 37.6151 1.15411 28.3433C-1.12093 23.1279 -1.57593 10.2633 14.8043 0.527909C16.559 -0.515068 19.2884 -0.0514715 17.7718 2.26637C17.4944 2.69028 17.0169 3.25468 16.4348 3.94266Z" fill="#FF9051"/>
<path d="M40.6601 3.94265C38.7023 6.25668 35.5615 9.96878 34.8753 14.4356C34.6082 16.174 34.3411 19.2453 38.1395 19.9407C41.6132 20.5767 45.5581 26.315 40.8102 32.3997C38.4691 35.3999 29.424 37.6151 25.3795 28.3433C23.1044 23.1279 22.6494 10.2633 39.0297 0.527909C40.7844 -0.515068 43.5138 -0.0514715 41.9971 2.26637C41.7198 2.69028 41.2422 3.25468 40.6601 3.94265Z" fill="#FF9051"/>
</svg>
